<svg width="20" height="20" viewBox="0 0 20 20" fill="none" xmlns="http://www.w3.org/2000/svg">
<g clip-path="url(#clip0_8_605)">
<path d="M10.0003 1.66667H7.08366C6.31011 1.66667 5.56825 1.97396 5.02126 2.52094C4.47428 3.06792 4.16699 3.80978 4.16699 4.58333C4.16699 5.35688 4.47428 6.09875 5.02126 6.64573C5.56825 7.19271 6.31011 7.5 7.08366 7.5M10.0003 1.66667V7.5M10.0003 1.66667H12.917C13.3 1.66667 13.6793 1.74211 14.0332 1.88868C14.387 2.03526 14.7085 2.2501 14.9794 2.52094C15.2502 2.79178 15.4651 3.11331 15.6116 3.46717C15.7582 3.82104 15.8337 4.20031 15.8337 4.58333C15.8337 4.96635 15.7582 5.34563 15.6116 5.69949C15.4651 6.05336 15.2502 6.37489 14.9794 6.64573C14.7085 6.91656 14.387 7.13141 14.0332 7.27798C13.6793 7.42456 13.3 7.5 12.917 7.5M10.0003 7.5H7.08366M10.0003 7.5H12.917M10.0003 7.5V13.3333M7.08366 7.5C6.31011 7.5 5.56825 7.80729 5.02126 8.35427C4.47428 8.90125 4.16699 9.64312 4.16699 10.4167C4.16699 11.1902 4.47428 11.9321 5.02126 12.4791C5.56825 13.026 6.31011 13.3333 7.08366 13.3333M12.917 7.5C12.534 7.5 12.1547 7.57544 11.8008 7.72202C11.447 7.86859 11.1254 8.08343 10.8546 8.35427C10.5838 8.62511 10.3689 8.94664 10.2223 9.30051C10.0758 9.65437 10.0003 10.0336 10.0003 10.4167C10.0003 10.7997 10.0758 11.179 10.2223 11.5328C10.3689 11.8867 10.5838 12.2082 10.8546 12.4791C11.1254 12.7499 11.447 12.9647 11.8008 13.1113C12.1547 13.2579 12.534 13.3333 12.917 13.3333C13.3 13.3333 13.6793 13.2579 14.0332 13.1113C14.387 12.9647 14.7085 12.7499 14.9794 12.4791C15.2502 12.2082 15.4651 11.8867 15.6116 11.5328C15.7582 11.179 15.8337 10.7997 15.8337 10.4167C15.8337 10.0336 15.7582 9.65437 15.6116 9.30051C15.4651 8.94664 15.2502 8.62511 14.9794 8.35427C14.7085 8.08343 14.387 7.86859 14.0332 7.72202C13.6793 7.57544 13.3 7.5 12.917 7.5ZM7.08366 13.3333C6.31011 13.3333 5.56825 13.6406 5.02126 14.1876C4.47428 14.7346 4.16699 15.4765 4.16699 16.25C4.16699 17.0235 4.47428 17.7654 5.02126 18.3124C5.56825 18.8594 6.31011 19.1667 7.08366 19.1667C7.85721 19.1667 8.59907 18.8594 9.14605 18.3124C9.69303 17.7654 10.0003 17.0235 10.0003 16.25V13.3333M7.08366 13.3333H10.0003" stroke="white" stroke-width="2" stroke-linecap="round" stroke-linejoin="round"/>
</g>
<defs>
<clipPath id="clip0_8_605">
<rect width="20" height="20" fill="white"/>
</clipPath>
</defs>
</svg>
