<svg width="9" height="11" viewBox="0 0 9 11" fill="none" xmlns="http://www.w3.org/2000/svg">
<path d="M8 4.68182C8 7.54545 4.5 10 4.5 10C4.5 10 1 7.54545 1 4.68182C1 3.70534 1.36875 2.76885 2.02513 2.07838C2.6815 1.3879 3.57174 1 4.5 1C5.42826 1 6.3185 1.3879 6.97487 2.07838C7.63125 2.76885 8 3.70534 8 4.68182Z" stroke="#C8C8C8" stroke-linecap="round" stroke-linejoin="round"/>
<path d="M4.5 5.90909C5.14433 5.90909 5.66667 5.35962 5.66667 4.68182C5.66667 4.00401 5.14433 3.45455 4.5 3.45455C3.85567 3.45455 3.33333 4.00401 3.33333 4.68182C3.33333 5.35962 3.85567 5.90909 4.5 5.90909Z" stroke="#C8C8C8" stroke-linecap="round" stroke-linejoin="round"/>
</svg>
