<?xml version="1.0" encoding="UTF-8"?>
<svg id="Layer_3" data-name="Layer 3" xmlns="http://www.w3.org/2000/svg" viewBox="0 0 924.01 1366.08">
  <defs>
    <style>
      .cls-1 {
        fill: #222432;
        stroke-width: 0px;
      }
    </style>
  </defs>
  <g>
    <path class="cls-1" d="m178.34,1301.41c-3.69-1.36-6.39-2.49-8.1-3.38-3.59-1.87-6.1-3.97-7.53-6.3s-1.29-5.12.41-8.39c1.27-2.43,3.27-6.17,6-11.22,2.73-5.04,5.41-10.08,8.03-15.12,6.51-12.5,10.57-21.62,12.19-27.35s.6-9.55-3.05-11.46c-7.3-3.81-13.32-1.15-18.08,7.98l-3.37,6.47c-1.27,2.43-2.24,4.33-2.92,5.7-.68,1.37-1.49,3.11-2.45,5.21-.96,2.1-1.61,3.8-1.97,5.09-.36,1.29-.65,2.69-.86,4.19-.22,1.5-.14,2.77.23,3.81s1,1.93,1.88,2.67c1.66.87,2.88,2.1,3.66,3.7.78,1.6.7,3.32-.25,5.14-2.16,4.15-4.96,8.14-8.4,11.97s-6.45,5.74-9.05,5.73c-7.07-5.59-15.23-10.79-24.46-15.61-10.01-5.22-19.49-9.22-28.45-12-1.5-2.12-1.66-5.68-.49-10.7,1.17-5.02,2.83-9.6,5-13.75.95-1.82,2.31-2.88,4.07-3.15,1.76-.28,3.47.02,5.13.88,3.16.95,6.05-.04,8.67-2.97,2.61-2.93,5.66-7.74,9.15-14.43l1.17-2.24c3.66-7.03,5.36-12.21,5.09-15.54-.27-3.34-2.89-6.77-7.88-10.28-1.18-.97-1.76-1.92-1.73-2.86.03-.93.65-2.56,1.86-4.88,1.53-2.93,3.35-5.66,5.47-8.17,2.12-2.52,4.02-4.37,5.7-5.57s2.82-1.64,3.43-1.32c8.95,6.57,17.3,11.87,25.04,15.91,3.54,1.85,7.34,3.58,11.42,5.22,4.07,1.63,6.66,2.74,7.77,3.31,2.38,1.24,3.76,2.51,4.14,3.8s-.25,3.51-1.89,6.66l-2.89,5.14c6.51-2.23,12.96-3.16,19.37-2.77,6.41.39,12.29,1.98,17.66,4.78,4.15,2.16,7.7,4.83,10.66,7.99s5.21,6.74,6.74,10.75,2.04,8.5,1.51,13.5-2.19,10.18-4.98,15.55c-.69,1.33-1.82,3.3-3.4,5.93-1.58,2.62-2.74,4.65-3.49,6.09-1.01,1.94-1.84,3.58-2.51,4.92-.66,1.34-1.42,2.97-2.28,4.88-.86,1.91-1.48,3.57-1.86,4.99-.38,1.42-.69,2.84-.91,4.28-.22,1.43-.15,2.66.19,3.69.34,1.02.96,1.84,1.84,2.44.11.06.41.29.91.69l.93.75c.12.1.41.34.85.71s.72.64.84.81c.12.17.34.44.64.8.3.37.49.68.57.93.08.25.17.58.28.99.1.41.13.79.09,1.15s-.14.77-.27,1.23-.33.94-.59,1.43c-2.16,4.15-4.96,8.14-8.4,11.97-3.44,3.83-6.45,5.74-9.05,5.73-5.91-4.98-12.41-9.32-19.48-13.01-1.33-.69-3.83-1.72-7.52-3.08Z"/>
    <path class="cls-1" d="m291.01,1342.47c-10.3-2.75-19.16-7.26-26.55-13.52-7.4-6.27-12.6-14.01-15.62-23.25-3.02-9.23-3.15-19-.4-29.3,4.22-15.79,12.61-26.75,25.16-32.9,12.55-6.14,27.17-6.99,43.87-2.53,13.14,3.5,23.1,9.94,29.89,19.3,6.79,9.36,9.32,19.21,7.6,29.53-3.87,8.91-16.4,10.76-37.61,5.56-6.13-1.44-13.72-3.37-22.76-5.78-1.27,7.15-.34,12.93,2.77,17.35s7.56,7.39,13.35,8.93c5.43,1.45,11.14,2.03,17.15,1.77,6.01-.27,11.51-1.29,16.5-3.06,1.81,1.45,2.36,3.5,1.65,6.15-1.11,4.16-3.12,8.35-6.03,12.58-2.9,4.23-5.45,6.92-7.63,8.08-9.91,5.43-23.69,5.79-41.35,1.08Zm14.1-66.5c3.59,1.06,6.38,1.85,8.37,2.38,2.41.64,4.19.58,5.33-.18s2.02-2.32,2.65-4.67c1.18-4.4,1.17-8.02,0-10.85s-3.49-4.71-6.92-5.62c-4.94-1.32-8.61-.63-11.01,2.05-2.4,2.69-4.54,7.55-6.42,14.6,1.75.47,4.42,1.23,8.01,2.28Z"/>
    <path class="cls-1" d="m450.54,1300.63c-.01-1.19-.22-2.76-.6-4.71-.39-1.95-.98-3.49-1.78-4.61-.8-1.12-2.03-2.2-3.71-3.24s-3.75-1.73-6.24-2.08c-1.99-.27-3.24-.79-3.78-1.56-.53-.77-.75-2.18-.67-4.24.18-4.3.88-8.66,2.13-13.07,1.24-4.41,2.82-7.17,4.74-8.28,9.71,2.08,20.12,3.34,31.21,3.78,3.43.14,7.35.08,11.76-.18,4.41-.26,7.18-.37,8.3-.32,2.74.11,4.45.68,5.13,1.7.67,1.03.94,3.29.8,6.77,0,.19-.15,2.46-.42,6.82-.27,4.36-.58,9.53-.92,15.51-.34,5.98-.59,11.06-.76,15.23-.15,3.74-.25,6.59-.3,8.55-.05,1.96.01,4.31.18,7.03.17,2.72.49,4.81.96,6.27.47,1.45,1.2,2.81,2.17,4.07.98,1.26,2.21,2.1,3.69,2.54.13,0,.51.05,1.16.14.65.09,1.19.22,1.62.39.43.17.92.48,1.46.9.55.43.94,1.14,1.18,2.15.24,1.01.33,2.23.27,3.66-.05,1.31-.29,3.37-.72,6.2-.43,2.82-1.36,6.06-2.79,9.72-1.43,3.66-3.12,5.76-5.08,6.3-.37-.08-1.24-.3-2.59-.66-1.36-.37-2.29-.61-2.78-.72-.5-.11-1.47-.31-2.93-.58-1.46-.28-2.84-.49-4.14-.64s-3.05-.29-5.23-.44-4.58-.28-7.19-.38c-4.11-.16-8.26-.18-12.45-.03s-6.81.19-7.87.15c-5.24-.21-7.68-4.52-7.34-12.94-3.64,5.16-8.2,8.67-13.68,10.55-5.47,1.87-12.11,2.65-19.9,2.34-3.93-.16-7.48-.66-10.66-1.51s-5.94-2.08-8.28-3.7-4.38-3.44-6.14-5.44-3.21-4.42-4.34-7.24-2.04-5.7-2.74-8.63c-.69-2.93-1.18-6.31-1.46-10.12-.28-3.82-.43-7.52-.43-11.11-.01-3.59.08-7.66.27-12.21.11-2.62.11-4.71.02-6.27-.09-1.56-.42-3.42-.99-5.56-.57-2.14-1.64-3.84-3.21-5.09-1.57-1.25-3.66-2.08-6.26-2.5-1.99-.33-3.24-.88-3.77-1.65-.53-.77-.75-2.18-.67-4.24.18-4.3.88-8.66,2.13-13.07,1.24-4.41,2.82-7.18,4.74-8.28,8.66,2.03,18.16,3.26,28.5,3.68,3.55.14,7.63.09,12.23-.16,4.6-.25,7.49-.35,8.67-.31,2.8.11,4.62.72,5.45,1.81s1.17,3.32,1.04,6.69c-.01.25-.2,2.51-.56,6.77s-.74,9.22-1.12,14.89c-.39,5.67-.65,10.24-.8,13.73-.21,5.23-.36,9.08-.43,11.55s-.05,5.4.06,8.81c.11,3.4.4,5.85.87,7.34.47,1.49,1.13,3.04,1.96,4.67.84,1.63,1.98,2.73,3.42,3.32,1.44.59,3.19.92,5.25,1.01,1.68.07,3.19-.15,4.52-.66s2.47-1.2,3.41-2.06c.94-.87,1.76-2.13,2.45-3.79s1.24-3.32,1.66-4.99.77-3.84,1.06-6.51.52-5.18.68-7.51c.16-2.33.31-5.25.45-8.74.09-2.12.12-3.77.11-4.96Z"/>
    <path class="cls-1" d="m602.79,1325.76c2.44.63,4.02,3.32,4.77,8.06.26,1.66.11,3.14-.44,4.42-2.74,4.28-7.1,7.86-13.09,10.75-5.99,2.89-12.22,4.84-18.69,5.85-4.31.67-8.25.94-11.81.8-3.56-.14-6.68-.85-9.38-2.14-2.7-1.28-5.05-2.61-7.06-3.96-2.01-1.36-3.8-3.51-5.37-6.45-1.57-2.94-2.85-5.49-3.85-7.64s-1.95-5.31-2.86-9.5c-.91-4.18-1.59-7.53-2.05-10.05-.46-2.52-1.08-6.27-1.86-11.26l-3.9-24.86-4.81.75c-6.35.99-9.7.34-10.06-1.94-.63-4.01-.5-8.41.39-13.22.36-2.14,1.2-3.53,2.52-4.18,1.32-.65,4.29-1.33,8.91-2.05,2.03-.32,3.51-1.45,4.44-3.39.93-1.94,1.82-5.79,2.69-11.54,3.27-14.96,9.04-23.09,17.3-24.37,5.73-.89,10.97.31,15.72,3.61l3.77,24.03c.36,2.28.62,3.63.78,4.04.16.42.55.58,1.16.48l16.36-2.55c1.6-.25,2.8.42,3.58,2,.78,1.58,1.41,3.88,1.89,6.9.74,4.74.27,7.93-1.44,9.55-1.7,1.62-4.99,2.81-9.86,3.57l-8.5,1.32,4.58,29.2c.59,3.76,1.13,6.92,1.63,9.5.5,2.57,1.09,5.12,1.77,7.63.68,2.51,1.42,4.53,2.23,6.04.8,1.52,1.74,2.85,2.81,4.01,1.07,1.16,2.28,1.92,3.62,2.28,1.35.36,2.89.4,4.61.13,2.03-.32,5.2-2.26,9.5-5.84Z"/>
    <path class="cls-1" d="m670.58,1284.03c.74,1.89,1.73,3.96,2.95,6.22,1.22,2.26,2.59,3.9,4.1,4.91s3.13,1.35,4.84.99c1.13-.17,1.99-.27,2.61-.3.61-.03,1.38.03,2.32.18.94.16,1.71.56,2.31,1.22.61.66,1.09,1.55,1.46,2.67,1.44,4.45,2.32,9.24,2.65,14.38.32,5.14-.43,8.63-2.27,10.47-9.12,1.19-18.85,3.45-29.17,6.8-10.68,3.46-20.18,7.42-28.51,11.89-2.56-.42-5.22-2.8-7.97-7.15s-4.85-8.75-6.29-13.2c-.37-1.13-.5-2.13-.39-3.02.1-.89.49-1.67,1.16-2.34s1.26-1.18,1.77-1.51,1.28-.76,2.29-1.28c1.6-.72,2.74-1.87,3.4-3.46.66-1.59.86-3.56.6-5.9s-.62-4.44-1.06-6.3c-.44-1.86-1.07-4.06-1.9-6.61l-2.37-7.3c-.63-1.96-1.19-3.52-1.66-4.67-.48-1.16-1.22-2.56-2.24-4.19-1.02-1.64-2.12-2.85-3.3-3.65-1.18-.8-2.73-1.39-4.66-1.79s-4.12-.32-6.57.21c-1.96.44-3.32.39-4.08-.15-.77-.54-1.46-1.79-2.1-3.74-1.32-4.09-2.18-8.44-2.55-13.04-.38-4.6.14-7.75,1.56-9.45,9.85-1.36,19.77-3.65,29.74-6.88,2.43-.79,5.18-1.91,8.25-3.36,3.07-1.45,5.02-2.31,5.85-2.58,2.67-.87,4.58-.93,5.74-.19,1.16.74,2.25,2.71,3.29,5.91.27.83.92,3.14,1.95,6.94,3.76-12.88,9.94-20.72,18.54-23.51,5.52-1.79,10.22-1.65,14.09.4s6.52,5.25,7.92,9.58c1.63,5.04,1.32,10.14-.94,15.3-2.26,5.16-6.3,8.68-12.12,10.56l-8.63-8.41c-2.67.86-4.72,2.63-6.16,5.29-1.43,2.66-1.7,6.4-.79,11.22l3.81,11.75c.92,2.85,1.75,5.22,2.5,7.1Z"/>
    <path class="cls-1" d="m781.68,1280.6c-3.75,4.82-8.21,8.67-13.4,11.54-4.97,2.75-9.72,4.4-14.26,4.96-4.54.55-8.61.09-12.2-1.37-3.59-1.47-6.79-3.51-9.59-6.13s-5.23-5.79-7.28-9.5c-2.02-3.66-3.47-7.15-4.35-10.48-.88-3.33-1.28-6.37-1.2-9.12s.68-5.44,1.8-8.06c1.12-2.61,2.5-4.96,4.12-7.04,1.63-2.08,3.73-4.18,6.29-6.32,2.56-2.13,5.16-4.05,7.78-5.75,2.62-1.7,5.63-3.49,9.01-5.36,2.02-1.12,4.12-2.18,6.31-3.18,2.19-1,3.89-1.69,5.11-2.08l1.77-.66-5.34-9.66c-1.78-3.22-3.66-5.14-5.64-5.75-1.98-.62-4.47-.09-7.47,1.57-2.62,1.45-5.15,3.39-7.59,5.81-2.44,2.42-4.45,4.84-6.04,7.25-1.59,2.41-3.01,4.74-4.27,6.97-1.26,2.23-2.18,4.04-2.77,5.44l-.79,2.04c-2.56,1.42-4.97,1.68-7.21.78s-4.21-2.87-5.9-5.93c-1.39-2.51-2.1-5.06-2.14-7.64-.04-2.58.41-5,1.33-7.26.93-2.26,2.42-4.58,4.48-6.97,2.06-2.39,4.18-4.53,6.35-6.4s4.81-3.87,7.91-5.99c3.11-2.11,5.87-3.89,8.28-5.33,2.41-1.44,5.17-3.02,8.28-4.75,5.56-3.08,10.63-5.36,15.21-6.82,4.57-1.46,8.78-2.07,12.63-1.81,3.85.26,7.35,1.08,10.5,2.47,3.16,1.39,6.24,3.66,9.26,6.8,3.02,3.14,5.81,6.58,8.38,10.33s5.38,8.38,8.43,13.89l2.08,3.77c.45.82,1.1,1.94,1.96,3.35.85,1.42,1.54,2.46,2.06,3.14.52.68,1.16,1.5,1.94,2.45.78.96,1.48,1.64,2.09,2.05s1.3.81,2.06,1.21,1.52.6,2.31.59,1.6-.14,2.45-.4c.06-.03.4-.2,1.05-.52.64-.32,1.18-.51,1.61-.57s1-.03,1.7.07c.7.11,1.41.52,2.12,1.23.71.71,1.43,1.72,2.16,3.03.63,1.15,1.5,3.04,2.6,5.67,1.1,2.63,1.99,5.89,2.66,9.75.68,3.87.32,6.54-1.07,8.03-.3.1-1.18.31-2.63.65-1.45.34-2.46.61-3.02.82s-1.58.59-3.05,1.15c-1.47.56-3.05,1.28-4.75,2.15-1.69.87-3.71,1.95-6.06,3.25-3.82,2.11-7.28,4.21-10.37,6.28-3.1,2.07-5.16,3.39-6.2,3.97-2.02,1.12-6.13-1.42-12.33-7.61-1.04,5.85-3.44,11.19-7.19,16.01Zm-12.34-44.55c-.96-1.75-1.93-2.68-2.88-2.79-.95-.11-3.04.72-6.26,2.5-2.78,1.54-4.36,3.79-4.72,6.73-.37,2.95.52,6.36,2.66,10.23,2.05,3.71,4.59,6.76,7.62,9.15,3.03,2.39,5.72,2.93,8.06,1.63,1.42-.79,2.61-2.14,3.58-4.07s1.34-3.54,1.12-4.84c-.93-2.98-3.99-9.16-9.18-18.55Z"/>
    <path class="cls-1" d="m833.75,1108.92c5.77,7.76,9.69,12.93,11.75,15.51l24.66,30.82c1.71,2.14,3.23,3.98,4.54,5.53,1.31,1.55,2.89,3.26,4.72,5.15s3.46,3.36,4.9,4.4c1.44,1.05,2.89,1.8,4.37,2.25,1.48.45,2.75.34,3.8-.35,1.28-.7,2.24-1.2,2.89-1.48.65-.28,1.48-.55,2.48-.79s1.9-.17,2.7.23,1.57,1.06,2.31,1.99c2.92,3.65,5.44,7.83,7.56,12.52s2.65,8.23,1.59,10.59c-8.11,4.34-16.4,9.91-24.87,16.69-8.76,7.02-16.24,14.09-22.44,21.22-2.54.52-5.87-.77-9.98-3.87-4.11-3.09-7.63-6.47-10.55-10.12-.74-.93-1.22-1.82-1.43-2.69-.22-.87-.09-1.76.36-2.69s.89-1.68,1.31-2.25c.42-.58,1.11-1.41,2.07-2.5,1.09-1.03,1.56-2.42,1.39-4.17-.16-1.75-.9-3.77-2.22-6.07-1.32-2.3-2.6-4.33-3.85-6.09-1.25-1.76-2.82-3.83-4.73-6.22l-27.52-34.4c-1.09-1.36-1.96-2.43-2.61-3.18s-1.57-1.72-2.78-2.87c-1.2-1.15-2.3-1.97-3.29-2.46-.99-.49-2.13-.91-3.42-1.28-1.29-.37-2.65-.37-4.09-.02s-2.89,1-4.37,1.95c-1.71,1.05-2.98,1.51-3.81,1.38s-1.77-.86-2.82-2.17c-2.8-3.51-5.23-7.51-7.28-12.02s-2.59-7.91-1.63-10.2c4.3-1.21,11.81-6.11,22.52-14.69,3.11-2.5,6.34-5.36,9.67-8.59,3.33-3.23,5.48-5.23,6.45-6.01,2.04-1.64,3.75-2.38,5.1-2.23s3.15,1.61,5.37,4.39c1.68,2.09,5.4,7.02,11.17,14.78Z"/>
  </g>
  <g>
    <path class="cls-1" d="m165.82,230.7c-8.9,2.17-17.15,2.81-24.73,1.91-7.59-.89-14.83-2.93-21.73-6.1-6.9-3.17-13.01-7.25-18.34-12.22-5.32-4.97-9.92-10.63-13.78-16.97-3.73-6.13-6.61-12.57-8.64-19.33-2.03-6.76-3.06-13.66-3.07-20.69s.98-13.83,2.99-20.38c2-6.55,5.38-12.81,10.15-18.77s10.69-11.11,17.78-15.42c5.86-3.57,11.26-6.12,16.2-7.67,4.94-1.54,10.88-2.42,17.83-2.64-.88-1.21-1.44-2.01-1.67-2.38-1-1.65-1.07-3.11-.2-4.37.87-1.26,3.28-3.09,7.23-5.49,3.52-2.14,6.24-3.58,8.16-4.31s4.07-.84,6.44-.31c2.37.53,4.69,1.86,6.96,3.98,2.28,2.12,5.26,5.38,8.96,9.77,3.82,4.61,6.37,7.95,7.63,10.03.94,1.55,1.6,2.84,1.98,3.89.38,1.05.6,1.94.64,2.67.05.74-.27,1.51-.94,2.32s-1.32,1.48-1.95,2.01-1.75,1.39-3.35,2.59c-4.88,3.62-7.53,5.57-7.95,5.83-2.56,1.56-5.41,1.36-8.57-.59-5.67-2.83-11.1-4.29-16.3-4.37-5.2-.08-9.72,1.04-13.55,3.38-5.7,3.47-9.02,8.79-9.94,15.96-.93,7.17,1.3,15.18,6.68,24.03,3.66,6.02,7.93,11,12.81,14.93,4.88,3.93,9.89,6.65,15.04,8.15,5.15,1.5,10.36,1.93,15.62,1.28,5.26-.65,10.21-2.38,14.85-5.2,10.02-6.1,18.03-14.52,24.05-25.26,4.14,2.37,7.4,5.5,9.77,9.39,2.34,3.83,3.51,8.16,3.52,12.97,0,4.81-1.13,9.81-3.41,15-2.28,5.19-6.04,10.5-11.27,15.95-5.23,5.44-11.65,10.48-19.27,15.12-8.84,5.38-17.72,9.16-26.62,11.33Z"/>
    <path class="cls-1" d="m281.57,174.05c-4.56,4.06-9.65,7.03-15.27,8.91-5.38,1.8-10.36,2.56-14.92,2.28s-8.48-1.47-11.75-3.57c-3.27-2.1-6.04-4.69-8.33-7.77-2.28-3.08-4.1-6.64-5.44-10.66-1.33-3.96-2.12-7.66-2.38-11.09-.26-3.43-.1-6.49.48-9.19s1.65-5.23,3.23-7.59c1.57-2.37,3.35-4.43,5.33-6.18,1.98-1.75,4.42-3.44,7.33-5.07s5.8-3.04,8.69-4.24,6.17-2.41,9.83-3.64c2.19-.73,4.45-1.39,6.79-1.98,2.34-.59,4.14-.96,5.4-1.12l1.86-.33-3.51-10.47c-1.17-3.49-2.67-5.72-4.51-6.68-1.84-.96-4.38-.9-7.63.19-2.84.95-5.68,2.39-8.52,4.33-2.84,1.94-5.26,3.95-7.26,6.03s-3.82,4.11-5.47,6.07-2.88,3.58-3.71,4.84l-1.15,1.87c-2.78.93-5.19.75-7.24-.54-2.04-1.29-3.62-3.59-4.73-6.9-.91-2.72-1.15-5.35-.72-7.9.43-2.54,1.3-4.84,2.62-6.9,1.32-2.05,3.21-4.07,5.67-6.04,2.46-1.98,4.93-3.69,7.4-5.14,2.47-1.45,5.43-2.94,8.87-4.45,3.44-1.51,6.48-2.76,9.11-3.74,2.63-.98,5.63-2.03,9-3.16,6.03-2.02,11.43-3.33,16.19-3.94,4.76-.61,9.01-.44,12.75.51,3.74.95,7.03,2.4,9.89,4.34,2.85,1.94,5.48,4.73,7.88,8.36,2.4,3.64,4.53,7.53,6.38,11.68s3.77,9.21,5.77,15.18l1.37,4.08c.3.89.74,2.1,1.32,3.65.58,1.55,1.07,2.7,1.45,3.46.38.76.87,1.68,1.47,2.77.59,1.08,1.16,1.88,1.69,2.39.53.51,1.14,1.03,1.81,1.57s1.39.87,2.16,1c.77.14,1.6.15,2.49.06.06-.02.43-.13,1.13-.33.69-.2,1.25-.29,1.68-.27.43.02.99.15,1.66.38.67.24,1.29.77,1.87,1.6.57.83,1.1,1.95,1.57,3.37.42,1.24.93,3.26,1.53,6.05s.89,6.15.86,10.07c-.03,3.93-.87,6.49-2.51,7.7-.31.04-1.22.1-2.71.17-1.49.07-2.53.16-3.12.26-.59.1-1.66.29-3.21.58-1.55.29-3.23.7-5.06,1.25-1.82.55-4.01,1.24-6.55,2.09-4.14,1.39-7.92,2.82-11.34,4.29-3.42,1.48-5.69,2.4-6.82,2.78-2.19.73-5.77-2.51-10.75-9.72-2.08,5.56-5.41,10.38-9.97,14.44Zm-4.07-46.05c-.63-1.89-1.41-2.98-2.33-3.27-.92-.28-3.12.16-6.61,1.32-3.02,1.01-4.97,2.93-5.87,5.76-.89,2.83-.64,6.35.77,10.55,1.35,4.02,3.29,7.48,5.84,10.38,2.55,2.9,5.09,3.92,7.64,3.07,1.54-.52,2.96-1.63,4.25-3.35,1.3-1.72,1.96-3.24,1.98-4.56-.38-3.1-2.27-9.73-5.68-19.9Z"/>
    <path class="cls-1" d="m398.67,104.87c.39,1.99.98,4.21,1.77,6.66s1.84,4.31,3.14,5.58c1.3,1.28,2.83,1.89,4.58,1.85,1.14.04,2.01.1,2.62.18.61.08,1.36.28,2.25.6s1.58.86,2.05,1.62c.48.76.79,1.72.95,2.89.61,4.64.6,9.51-.02,14.63s-2,8.41-4.13,9.88c-9.19-.5-19.16-.04-29.92,1.37-11.13,1.46-21.2,3.62-30.19,6.5-2.44-.87-4.62-3.7-6.54-8.48-1.92-4.78-3.18-9.49-3.79-14.13-.15-1.17-.1-2.19.17-3.04.27-.85.79-1.55,1.57-2.09.78-.54,1.45-.93,2.02-1.16.57-.23,1.4-.51,2.49-.84,1.71-.41,3.03-1.34,3.98-2.79.94-1.44,1.5-3.34,1.66-5.69s.2-4.48.11-6.38-.31-4.19-.66-6.85l-1-7.61c-.27-2.04-.53-3.67-.78-4.9s-.74-2.73-1.44-4.53c-.71-1.8-1.57-3.19-2.58-4.19-1.01-1-2.43-1.87-4.26-2.6-1.82-.74-3.99-1.07-6.5-.99-2,.07-3.33-.22-3.98-.89-.65-.67-1.12-2.02-1.38-4.07-.56-4.27-.6-8.7-.14-13.29.47-4.59,1.55-7.6,3.25-9.01,9.94.46,20.1,0,30.49-1.35,2.54-.33,5.45-.93,8.73-1.8,3.28-.87,5.36-1.36,6.22-1.48,2.78-.36,4.68-.08,5.68.86,1,.94,1.73,3.08,2.16,6.42.11.87.33,3.26.66,7.18,6.04-11.99,13.55-18.57,22.51-19.75,5.75-.75,10.35.23,13.79,2.96,3.44,2.73,5.45,6.35,6.05,10.86.69,5.26-.55,10.22-3.71,14.88-3.16,4.66-7.78,7.39-13.84,8.18l-6.95-9.85c-2.78.36-5.12,1.72-7.02,4.08s-2.83,5.99-2.82,10.89l1.6,12.25c.39,2.97.78,5.45,1.16,7.45Z"/>
    <path class="cls-1" d="m505.68,20.35c-.46,4.37-.96,9.37-1.5,14.99-.54,5.62-.92,10.01-1.14,13.19,7.39-2.99,15.01-4.22,22.85-3.68,6.1.42,11.86,1.86,17.28,4.33,5.43,2.47,10.17,5.73,14.23,9.79,4.06,4.06,7.19,9.07,9.37,15.04,2.18,5.96,3.04,12.4,2.56,19.3-.64,9.27-2.78,17.59-6.41,24.97-3.63,7.38-8.31,13.34-14.03,17.88-5.72,4.54-12.23,7.89-19.54,10.05s-15,2.95-23.09,2.39c-12.81-.88-24.47-4.62-34.95-11.22-9.06,4.44-16.57,6.45-22.54,6.04-6.59-.45-9.67-3.95-9.22-10.48.07-1.06.51-2.2,1.31-3.43s1.75-2.35,2.86-3.37c1.1-1.02,2.21-1.96,3.33-2.82,1.12-.86,2.07-1.51,2.85-1.96l1.08-.77c1.62-8.14,3.85-32.68,6.67-73.61.14-2.05.22-3.7.25-4.95.02-1.25-.13-2.82-.47-4.72-.34-1.9-.9-3.44-1.7-4.62-.79-1.18-2.01-2.31-3.66-3.39s-3.7-1.83-6.17-2.25c-1.98-.32-3.22-.88-3.73-1.66-.51-.79-.69-2.21-.55-4.26.3-4.29,1.13-8.63,2.49-13,1.36-4.38,3.02-7.09,4.97-8.14,9.96,2.37,20.63,3.95,32.02,4.74,3.24.22,6.95.28,11.15.16,4.2-.12,6.82-.14,7.88-.07,2.8.19,4.6.83,5.4,1.92s1.08,3.31.85,6.67c-.02.25-.25,2.56-.71,6.94Zm-6.41,88.96c.05,3.38.35,6.52.9,9.44s1.46,5.16,2.72,6.75c1.27,1.59,2.93,2.45,4.98,2.59,6.29.43,10.17-10.08,11.64-31.54.67-9.77.39-17.69-.85-23.78-1.24-6.09-3.44-9.24-6.61-9.46-1.18-.08-2.27.06-3.26.43-.99.37-1.87,1.03-2.62,1.98s-1.42,1.95-1.99,3.01c-.57,1.05-1.08,2.49-1.52,4.3-.44,1.81-.8,3.48-1.09,4.99-.29,1.51-.56,3.51-.79,5.99-.23,2.49-.43,4.61-.58,6.38-.15,1.77-.33,4.12-.53,7.04-.31,4.54-.44,8.5-.4,11.88Z"/>
    <path class="cls-1" d="m578.33,143.75c-7.87-11.86-9.44-25.71-4.7-41.55,4.72-15.77,13.25-26.7,25.58-32.77,12.33-6.07,27.61-6.38,45.83-.92,8.84,2.65,16.49,6.01,22.95,10.1s11.68,8.87,15.67,14.36,6.42,11.82,7.3,18.98.07,14.93-2.44,23.29c-4.9,16.37-13.7,27.49-26.4,33.35-12.69,5.87-28.06,6.1-46.11.69-17.27-5.17-29.84-13.69-37.71-25.55Zm37.71-1.69c-.23,5.66,1.57,9.06,5.39,10.21,1.37.41,2.7.38,3.98-.08,1.28-.46,2.48-1.44,3.61-2.92,1.13-1.49,2.17-3.08,3.14-4.77.96-1.7,1.98-3.98,3.03-6.86s1.97-5.5,2.75-7.87,1.71-5.38,2.8-9.02c.82-2.75,1.48-5.01,1.98-6.78s1.11-4.19,1.83-7.26c.72-3.07,1.19-5.63,1.38-7.69.19-2.06.27-4.2.22-6.43-.05-2.23-.48-4.02-1.28-5.36s-1.95-2.24-3.44-2.69c-3.94-1.18-7.31.71-10.1,5.67s-6.08,13.77-9.87,26.44c-3.38,11.29-5.19,19.77-5.42,25.43Z"/>
    <path class="cls-1" d="m760.03,233.86c-3.62-1.52-6.27-2.76-7.95-3.73-3.51-2.03-5.93-4.23-7.25-6.62-1.32-2.38-1.06-5.17.78-8.36,1.37-2.38,3.54-6.03,6.49-10.95,2.95-4.92,5.85-9.84,8.69-14.75,7.05-12.21,11.51-21.14,13.37-26.79,1.86-5.66,1.01-9.52-2.55-11.58-7.13-4.12-13.27-1.72-18.41,7.19l-3.65,6.32c-1.37,2.38-2.43,4.23-3.17,5.57-.74,1.34-1.63,3.04-2.68,5.1-1.05,2.06-1.78,3.73-2.19,5-.41,1.27-.76,2.66-1.05,4.15s-.27,2.76.06,3.82c.33,1.05.92,1.97,1.76,2.75,1.62.94,2.79,2.22,3.5,3.86s.55,3.35-.48,5.13c-2.34,4.05-5.31,7.92-8.91,11.6-3.6,3.68-6.7,5.46-9.29,5.33-6.83-5.89-14.75-11.44-23.77-16.65-9.77-5.65-19.08-10.05-27.92-13.21-1.41-2.18-1.41-5.75-.02-10.71,1.39-4.96,3.25-9.47,5.6-13.52,1.03-1.78,2.43-2.77,4.2-2.97,1.77-.2,3.47.17,5.09,1.1,3.12,1.08,6.05.22,8.79-2.59s6-7.48,9.77-14.02l1.26-2.19c3.96-6.86,5.89-11.96,5.77-15.31s-2.6-6.88-7.43-10.61c-1.14-1.02-1.67-1.99-1.6-2.93s.76-2.53,2.07-4.8c1.65-2.86,3.6-5.51,5.82-7.93,2.23-2.42,4.21-4.2,5.94-5.32s2.89-1.52,3.49-1.17c8.66,6.95,16.77,12.61,24.33,16.98,3.46,2,7.18,3.9,11.18,5.7,4,1.81,6.54,3.02,7.62,3.65,2.32,1.34,3.65,2.67,3.97,3.97.33,1.3-.4,3.5-2.18,6.58l-3.11,5.01c6.6-1.95,13.09-2.59,19.48-1.93,6.39.66,12.2,2.51,17.44,5.54,4.05,2.34,7.49,5.15,10.3,8.44,2.82,3.29,4.91,6.96,6.27,11.03,1.36,4.07,1.67,8.58.92,13.55-.75,4.97-2.64,10.07-5.66,15.31-.75,1.3-1.97,3.22-3.66,5.77-1.69,2.55-2.94,4.53-3.75,5.94-1.09,1.89-2,3.49-2.72,4.8-.72,1.31-1.55,2.9-2.49,4.77-.94,1.87-1.63,3.51-2.08,4.9-.45,1.4-.81,2.81-1.09,4.23-.28,1.42-.27,2.65.03,3.69.3,1.04.88,1.88,1.73,2.51.11.06.4.3.88.72l.89.79c.12.1.39.35.81.74s.69.67.81.84c.12.17.31.45.6.83s.46.7.53.95c.07.26.15.59.23,1,.09.41.1.79.03,1.15s-.17.77-.33,1.22c-.15.45-.37.92-.65,1.41-2.34,4.05-5.31,7.92-8.91,11.6-3.6,3.68-6.7,5.46-9.29,5.33-5.69-5.23-12-9.85-18.91-13.84-1.3-.75-3.75-1.88-7.38-3.4Z"/>
  </g>
  <path class="cls-1" d="m906.87,626.21h0c-13.33-23.09-17.48-35.65-21.87-48.96-4.37-13.23-8.89-26.91-22.77-50.96-13.9-24.08-23.68-34.75-33.14-45.06-9.48-10.35-18.44-20.12-31.75-43.18-13.7-23.73-21.5-35.31-29.04-46.51-7.44-11.05-15.14-22.47-28.65-45.88-25.38-43.95-63.68-67.19-110.76-67.19-26.82,0-39.85-1.92-53.64-3.95-13.57-2-27.6-4.06-55.21-4.06s-41.43,1.32-54.94,2.59c-13.26,1.25-26.96,2.54-53.93,2.54s-41.45,1.37-54.96,2.7c-13.25,1.3-26.95,2.65-53.91,2.65-54.51,0-96.81,21.27-119.11,59.89-13.72,23.76-19.68,36.42-25.45,48.67-5.67,12.05-11.54,24.5-25.03,47.87-13.31,23.05-22.3,32.8-31.82,43.12-9.5,10.3-19.32,20.95-33.23,45.03-13.86,24-18.63,37.51-23.25,50.57-4.66,13.18-9.06,25.63-22.42,48.77-26.77,46.37-29.3,99.6-6.6,138.92,13.76,23.83,22.12,35.15,30.21,46.1,7.91,10.71,16.09,21.78,29.54,45.09,13.47,23.33,19.09,35.9,24.53,48.05,5.55,12.4,11.29,25.23,25.03,49.04,13.57,23.51,20.15,35.64,26.52,47.37,6.4,11.8,13.02,24,26.66,47.63,23.76,41.15,73.75,68.79,124.4,68.79,27.65,0,41.71-2.32,55.3-4.57,13.77-2.28,26.78-4.43,53.55-4.43s41.26-.7,54.7-1.38c13.31-.67,27.08-1.36,54.16-1.36s40.97.29,54.32.58c13.41.29,27.27.58,54.55.58,48.09,0,86.62-22.72,111.44-65.7,13.3-23.03,22.37-32.72,31.97-42.98,9.59-10.25,19.51-20.85,33.43-44.95,13.76-23.84,19.36-36.76,24.78-49.26,5.3-12.22,10.77-24.85,24.22-48.15,13.74-23.8,19.54-36.58,25.14-48.95,5.5-12.13,11.18-24.67,24.66-48.01,25.16-43.58,25.99-90.13,2.35-131.08Zm-548.03,240.1c9.84,20.74,23.24,37.85,48.27,41.54,7.04,1.04,14.29,3.14,20.45,6.55,2.73,1.51,3.36,7.44,4,11.51.11.67-4.88,3.42-7.09,2.99-33-6.31-59.75-22.66-73.75-53.82-18.05-40.17-11.67-56.69-11.04-59.47.61-2.65,2.39-5.04,3.65-7.54,3.32-.28,7.02-2.71,6.55,8.19-.75,17.6,1.51,34.37,8.95,50.04Zm139.3,9.8c25.47-.81,44.47-12.16,55.56-35.51,3.83-8.05,7.04-16.4,10.72-24.53,1.17-2.58,2.41-5.63,4.55-7.14,2.06-1.46,5.48-1.9,7.99-1.35.98.21,2.02,4.61,1.46,6.67-3.81,13.88-4.54,30.57-13.02,40.72-10.7,12.8-23.71,26.55-43.14,28.53-10.68,1.09-21.25,3.27-32.35,5.04-2.4-11.69-1.87-12.11,8.23-12.43Zm-12.09-17.06c-.56-10.42-1.78-14.81-3.31-31.3-.46-4.98,1.97-12.97,3.17-19.1,16.27,0,32.25.05,48.24-.03,5.75-.03,11.52-.69,17.24-.35,1.47.09,4.13,3.04,3.95,4.37-.84,6.31-1.47,12.97-4.02,18.67-6.54,14.62-18.43,25.19-32.19,31.98-8.22,4.05-19.05,3.13-28.75,3.52-1.41.06-4.19-4.98-4.33-7.76Zm91.28-276.31c-14.86,1.1-29.72,2.2-46.04,3.41-.01-.02-.93.72-3.03,1.02-5.68,1.99-5.04,2.22-11.29,4.82-2.68,2.07-5.5,3.99-8.01,6.26-5.25,4.76-10.48,9.55-15.41,14.63-2.92,3.01-5.24,6.59-7.83,9.92-.94-.42-1.89-.84-2.83-1.27-.5-6.2-.92-12.41-1.52-18.59-.95-9.84-.94-19.95-3.43-29.4-1.68-6.36-5.95-12.86-10.84-17.38-10.16-9.42-21.5-17.56-30.25-24.55-27.34-.89-50.82,5.23-69.64,24.08,4.94-15.29,15.29-24.22,30.55-27.33,7.75-1.58,16.08-4.66,23.36-3.18,11.6,2.36,24.06,1.89,34.71,8.86,11.43,7.48,17.26,19.05,25.21,29.37,9.24,11.99,6.36,24.96,10.33,38.73,8.47-5.49,16.22-10.51,23.97-15.54,3.89-1.85,7.77-3.7,11.66-5.55,15.21-5.9,26.81-11.34,42.98-8.3,2.02.38,7.73.99,9.46,2.95,1.57-1.42,2.94,2.7,5.93,0,5.07,4,11.45,3.02,17.27,6.71,2.72,1.73,6.5,6.03,8.73,8,8.66,7.67,15.73,17.43,25.11,23.95,9.75,6.78,11.3,17.1,15.13,26.31,2.34,5.62,1.27,12.64,1.81,19.03.11,1.32.89,2.62.82,3.9-.26,4.54-.76,9.07-1.17,13.6-.9-.11-1.8-.22-2.71-.33-2.26-9.61-4.99-19.15-6.62-28.87-1.37-8.2-6.62-14.47-9.29-22.02-4.86-13.71-19.27-18.85-28.14-29.14-3.19-3.7-8.56-5.51-13.53-8.54-5.98-1.62-9.26-4.99-15.46-5.56Zm-208.88,225.91c20.26-.38,40.52-.8,60.78-.85,5.63-.01,8.39,2,8.87,9.32.96,14.49-3.26,28.38-2.23,43,1.03,14.6-2.85,29.55-4.65,44.94-55.43-4.56-71.45-46.01-71.77-95.47,2.93-.32,5.96-.88,9-.94Zm64.7,265.46c1.64-27.42,4.06-54.79,5.79-82.21,1.3-20.64,1.78-41.34,2.87-62,1.18-22.37,2.58-44.73,4.02-67.08,1.11-17.37,2.42-34.72,3.76-53.63,7.83-.37,15.22-.73,23.38-1.11,1.54,23.79,3.02,45.88,4.38,67.98,2.08,33.7,4.05,67.41,6.13,101.11,1.99,32.22,3.92,64.45,6.21,96.65.07.92.06,1.74-.02,2.46-6,.08-11.99.17-17.99.22-2.49.12-4.89.24-7.27.36-4.32.22-8.57.43-13.2.62h-.26c-2.16-.04-4.33-.08-6.49-.14-.23-.25-.47-.57-.68-.89-3.28.08-6.5.28-9.74.54-.58-1.05-.96-2.1-.91-2.89Zm446.53-331.15c-14.18,24.56-20.16,37.75-25.95,50.53-5.56,12.27-10.82,23.86-23.84,46.42-14.27,24.71-20.08,38.11-25.7,51.09-5.33,12.29-10.36,23.9-23.3,46.32-12.27,21.25-20.65,30.21-29.53,39.7-10.28,10.99-20.92,22.35-35.86,48.24-19.68,34.08-48.82,51.36-86.61,51.36-26.99,0-40.69-.29-53.98-.58-13.49-.29-27.45-.59-54.88-.59-1.97,0-3.88,0-5.76.01-.83.39-1.8.62-2.91.62-4.45,0-8.9.04-13.34.09.5-7.28.41-14.18.35-14.91-1.12-12.92-1.66-25.89-2.31-38.85-.76-15.05-1.32-30.11-2.2-45.15-.99-16.91-2.49-33.8-3.31-50.72-.48-9.91-.09-19.85-.09-29.61,17.1-2.44,33.49-.49,49.4-8.34,17.2-8.49,29.8-20.5,37.82-37,5.02-10.32,7.63-21.96,10.25-33.26,2.14-9.21,8.24-10.45,15.8-10.33,22.59.38,45.18,1.06,67.76,1.1,22.58.04,45.16-.84,67.73-.76,10.52.03,19.96.82,29.13-7.6,14.18-13.04,22.45-29.08,28.87-46.4,6.06-16.36,3.94-33.36-.48-49.55-4.06-14.88-8.76-30.13-21.24-40.79-6.97-5.95-14.52-11.23-21.78-16.79-2.77,1.26-5.27,2.39-7.13,3.24,2.13-7.83-4.67-7.08-8.12-7.83-5.54-1.19-5.69-.64-4.18-5.34,2.57-8.01,6.78-15.89,7.44-24.05,1.54-19.05,3.37-38.46,1.36-57.32-1.97-18.48-9.31-36.25-21.76-50.83-8.63-10.1-17.07-21.04-27.76-28.49-10.38-7.23-23.49-10.58-35.46-15.49-20.05-8.22-40.19-2.85-60.25-.02-2.28.32-4.25,3.66-6.44,3.75-17.63.7-30.67,10.33-41.47,18.96-3.18-1.93-9.96-4.03-10.06-6.42-.69-16.37-10.76-27.98-19.77-39.59-8.37-10.79-18.68-20.32-29.18-29.14-7.15-6-14.55-13.96-24.32-10.26-.49-1.98-.39-4.65-1.36-5.13-18.89-9.3-38.96-14.42-59.99-13.9-32.81.81-61.81,11.38-86.27,34.24-18.18,16.99-30.73,36.91-37.16,60.82-1.32,4.89-3.32,9.76-3.61,14.72-.93,15.92-2.03,31.92-1.46,47.83.38,10.56,3.52,21.02,5.69,32.99-5.95-1.46-8.9-2.7-11.9-2.84-15.2-.72-30.17-2.41-45.7-.01-10.94,1.69-21.55,3.26-31.23,8.24-8.99,4.63-16.82,11.66-26.01,15.73-6.58,2.92-11.91,5.62-14.12,12.79-.41,1.32-1.96,2.28-2.97,3.41-5.31,5.9-11.79,11.11-15.71,17.82-13.43,22.94-16.23,47.94-14.02,74.26,1.74,20.81,7.12,40.58,15.16,59.31,10.32,24.05,26.87,44,54.6,47.3,26.05,3.11,52.52,3.04,78.82,3.46,17.8.29,35.63-1.16,53.45-1.33,2.18-.02,6.06,2.8,6.31,4.69.99,7.48.37,15.16,1.24,22.67,2.45,21.29,7.66,40.66,20.89,59.3,10.8,15.22,24.99,23.62,39.22,32.46,10,6.21,21.72,11.67,34.83,10.74,1.74-.12,5.45,4.15,5.41,6.33-.25,12.31-1.31,24.6-2.19,36.89-.55,7.63-1.51,15.23-1.87,22.86-.73,15.39-.84,30.81-1.88,46.18-.63,9.28-1.47,18.64-3.26,27.75-.12,0-.25,0-.37,0-.01.07-.02.14-.04.22-3.09.02-6.38.03-9.92.03-29.13,0-43.92,2.45-58.23,4.81-13.02,2.15-25.32,4.19-50.62,4.19-40.11,0-81.06-22.39-99.57-54.46-13.49-23.37-20-35.37-26.32-47.03-6.45-11.89-13.12-24.18-26.85-47.97-13-22.52-18.19-34.12-23.69-46.41-5.73-12.82-11.66-26.07-25.87-50.68-14.27-24.71-22.93-36.44-31.32-47.79-7.97-10.78-15.49-20.97-28.43-43.39-17.33-30.02-14.74-73.29,6.59-110.25,14.68-25.43,19.73-39.73,24.62-53.56,4.38-12.38,8.51-24.07,21.04-45.78,12.31-21.33,20.65-30.36,29.48-39.94,10.16-11.02,20.66-22.41,35.56-48.21,14.09-24.41,20.22-37.41,26.14-49.99,5.77-12.25,11.22-23.81,24.34-46.55,22.88-39.64,68.89-45.55,94.27-45.55,28.38,0,42.78-1.42,56.71-2.79,13.41-1.32,26.07-2.56,52.15-2.56,28.31,0,42.7-1.36,56.64-2.67,13.43-1.27,26.12-2.46,52.22-2.46s37.9,1.82,51.03,3.75c14.2,2.09,28.89,4.25,57.81,4.25,36.77,0,65.68,17.78,85.93,52.85,14.02,24.29,21.99,36.12,29.7,47.57,7.6,11.29,14.78,21.94,27.99,44.83,14.88,25.78,25.34,37.18,35.45,48.22,8.8,9.6,17.11,18.67,29.44,40.02,12.41,21.49,16.28,33.2,20.37,45.61,4.65,14.09,9.46,28.66,24.27,54.3,18.57,32.17,17.76,67.58-2.35,102.41Z"/>
</svg>