<svg width="139" height="82" viewBox="0 0 139 82" fill="none" xmlns="http://www.w3.org/2000/svg">
<path fill-rule="evenodd" clip-rule="evenodd" d="M76.3635 74.2927L77.422 73.8351L78.5824 73.5797L79.7688 73.5842L80.9384 73.7925L82.0851 74.0768L83.2045 74.4736L84.3345 74.4918L85.3731 74.8324L86.4285 75.1243L87.4839 75.4238L88.5438 75.7111L89.6419 75.8434L90.6667 76.3025L91.7998 76.2554L92.8385 76.6841L93.9167 76.9243L95.0269 76.8969L96.1249 76.9274L97.191 77.2603L98.2829 77.3698L99.3824 77.4337L100.485 77.385L101.582 77.6647L102.683 77.3318L103.788 77.4625L104.897 77.5066L105.992 77.3302L107.088 77.1919L108.205 77.1646L109.289 76.9289L110.326 76.5002L111.426 76.3329L112.443 75.8829L113.55 75.7005L114.464 75.0133L115.457 74.5466L116.555 74.282L117.447 73.6161L118.408 73.0795L119.325 72.4713L120.252 71.8678L120.968 71.0042L122.021 70.5268L122.809 69.7454L123.327 68.7207L124.293 68.0974L124.838 67.1168L125.482 66.2213L126.222 65.3851L126.611 64.3194L127.445 63.5243L127.773 62.4342L128.528 61.5707L128.671 60.4198L129.369 59.5L129.669 58.4191L129.573 57.2819L129.676 56.1918L129.462 55.1154L128.756 54.2945L128.12 53.3549L127.075 52.9338L125.963 52.8471L124.899 52.5841L123.805 52.3302L122.697 52.4458L121.606 52.7073L120.481 52.5263L119.419 52.9262L118.286 52.8289L117.201 53.0615L116.089 53.1649L115.006 53.4294L113.91 53.6346L112.877 54.0938L111.812 54.3979L110.71 54.5605L109.621 54.7673L108.549 55.0349L107.516 55.3997L106.572 55.9896L105.447 56.1067L104.477 56.6069L103.458 56.9976L102.553 57.6239L101.618 58.1834L100.587 58.562L99.6276 59.0743L98.822 59.8588L97.8214 60.3028L96.9016 60.8926L95.933 61.4004L94.998 61.966L93.938 62.3065L93.0334 62.9299L92.0085 63.3221L91.1297 64.0093L90.1094 64.4046L89.0144 64.6052L88.026 65.0446L87.0514 65.5554L85.9792 65.7637L84.8949 65.8564L83.8548 66.2198L82.7613 66.0662L81.6831 66.1955L80.579 66.238L79.5601 65.8504L78.5032 65.6542L77.4905 65.3046L76.5798 64.7193L75.5701 64.3559L74.5543 63.956L73.6847 63.3099L72.9309 62.5346L72.2517 61.7014L71.3136 61.11L70.8064 60.1401L70.1638 59.2872L69.7434 58.302L68.9546 57.5069L68.8297 56.3986L68.318 55.4256L67.9708 56.467L67.951 57.5464L67.8733 58.6046L67.6906 59.6536L67.7164 60.7163L67.4377 61.7835L67.4865 62.8584L67.8489 63.8952L67.8154 64.9838L68.2677 65.972L68.6454 66.9617L69.0916 67.9165L69.5927 68.8424L70.144 69.7819L69.3825 70.6546L68.9226 71.6944L68.452 72.7176L68.0606 73.7742L67.3022 74.6804L67.0905 75.8084L66.7433 76.8894L66.757 78.0266L66.6763 79.1425L67.0524 80.1808L67.5885 81.3302L68.1855 80.2052L68.982 79.3979L69.9292 78.7426L70.8064 78.025L71.4628 77.0627L72.506 76.5442L73.3786 75.8297L74.2558 75.0984L75.3173 74.691L76.3635 74.2927Z" fill="#6E8A8A"/>
<path fill-rule="evenodd" clip-rule="evenodd" d="M106.732 64.3302L106.678 65.4194L106.676 65.4471L106.693 66.5594L106.694 66.6026L106.834 67.7242L106.839 67.7551L107.07 68.855L107.084 68.9167L107.503 69.9951L107.532 70.0692L108.166 71.0488L108.186 71.0766L108.862 71.9605L108.921 72.0362L109.848 72.7659L109.897 72.8044L110.89 73.3537L110.935 73.3799L111.982 73.7871L112.03 73.8057L113.124 74.0726L113.159 74.0818L114.259 74.2391L114.281 74.2423L115.383 74.324L115.41 74.3255L116.517 74.3302H116.556L117.676 74.2145L117.524 72.681L116.483 72.7875L115.463 72.7828L114.449 72.7088L113.443 72.5637L112.481 72.3293L111.572 71.976L110.732 71.5101L110.003 70.9362L109.417 70.171L108.888 69.3549L108.544 68.4709L108.339 67.4959L108.213 66.4885L108.196 65.4656L108.251 64.4104L106.732 64.3302Z" fill="#1C0803"/>
<path fill-rule="evenodd" clip-rule="evenodd" d="M114.63 61.8309L114.105 61.309L113.653 61.7614L114.178 62.2834L114.701 61.7614L114.247 61.3075L113.723 61.8309L114.247 62.3529L114.702 61.8989L114.178 61.377L113.652 61.8989L114.105 62.3529L114.63 61.8309L114.105 61.309L114.63 61.8309L115.155 61.309L114.702 60.8551L114.178 60.3302L113.198 61.309L112.676 61.8309L113.653 62.8068L114.178 63.3302L115.155 62.3529L115.676 61.8309L115.155 61.309L114.63 61.8309Z" fill="#1C0803"/>
<path fill-rule="evenodd" clip-rule="evenodd" d="M46.0883 18.0319L46.1322 19.1302L46.2959 20.233L46.7628 21.2494L47.0811 22.3158L47.6464 23.2702L48.2679 24.1866L49.1198 24.9062L49.8427 25.7318L50.731 26.3786L51.5995 27.0618L52.6332 27.4632L53.5942 28.0055L54.6143 28.4357L55.7026 28.6523L56.75 29.0325L57.8762 29.0204L58.9478 29.3521L60.0513 29.4521L61.1592 29.4567L62.2657 29.5036L63.3753 29.5672L64.4818 29.4264L65.5731 29.2552L66.6796 29.1189L67.8073 29.1461L68.9274 29.0295L70.0172 28.6674L71.1419 28.6205L72.2757 28.675L73.3882 28.4418L74.5175 28.4175L75.6436 28.413L76.7714 28.3781L77.8672 28.7159L78.9661 28.8704L80.0271 29.1885L80.9563 29.7778L81.599 30.6655L81.6763 31.7607L81.561 32.865L81.1973 33.9178L80.9002 35.01L80.3061 35.9295L79.7316 36.852L78.9494 37.6124L78.2052 38.3986L77.4474 39.1727L76.6955 39.9619L75.7103 40.4694L74.86 41.1329L73.9991 41.7888L73.0654 42.3386L72.1544 42.9279L71.2131 43.4702L70.2825 44.0443L69.2078 44.3049L68.2271 44.7729L67.1677 45.0274L66.143 45.3774L65.132 45.8152L64.071 46.0878L62.9554 45.9788L61.8929 46.3302L60.797 46.2741L59.7057 46.2499L58.6204 46.1348L57.5457 45.9409L56.4604 45.7712L55.4146 45.438L54.4081 44.9987L53.4047 44.5518L52.4877 43.9353L51.6147 43.2688L50.6628 42.7083L49.9337 41.8736L49.2107 41.0541L48.3058 40.3982L47.7374 39.4484L46.9674 38.6546L46.4293 37.6943L46.0261 36.6657L45.2941 35.8159L44.9121 34.7827L44.4119 33.8042L44.1603 32.7287L43.7768 31.7092L43.3009 30.7109L43.1099 29.6248L42.9295 28.5417L42.7294 27.4677L42.3914 26.4225L42.2247 25.3439L42.2277 24.2381L42.114 23.1596L41.9094 22.0977L40.9711 21.5751L40.0026 21.107L38.984 20.7541L37.9473 20.4526L36.9499 20.0587L35.9919 19.5013L34.9021 19.3968L33.8472 19.1514L32.7649 19.1378L31.6858 19.2605L30.6763 19.7058L31.5433 19.2589L32.4906 18.6894L33.3728 18.0259L34.3428 17.4926L35.1901 16.7519L36.139 16.1748L37.1894 15.7718L38.2413 15.3871L39.1795 14.7751L40.1163 14.304L40.2497 13.2345L40.4983 12.1393L40.6741 11.0229L41.2546 10.0428L41.7684 9.05816L42.3778 8.13262L42.9856 7.15405L44.0344 6.6663L44.953 6.02552L45.9882 5.54378L47.2114 5.3302L46.5036 6.30271L46.2368 7.37974L45.773 8.37652L45.6411 9.47472L45.3819 10.5306L45.0576 11.5894L44.9045 12.6846L45.1304 13.7829L45.0439 14.8978L45.3441 15.9642L45.7518 16.9897L46.0883 18.0319Z" fill="#6E8A8A"/>
<path fill-rule="evenodd" clip-rule="evenodd" d="M62.6763 36.3774L62.7085 37.4826L62.71 37.4994L62.8023 38.6243L62.8053 38.6578L62.9885 39.7768L62.9929 39.798L63.2173 40.8911L63.226 40.9292L63.5749 42.0237L63.5925 42.0815L64.1115 43.1182L64.1423 43.1807L64.8357 44.1093L64.9061 44.2037L65.8854 44.8933L65.9851 44.9633L67.1227 45.2952L67.2385 45.3302L68.4259 45.2647L68.508 45.2602L69.609 44.9405L69.6413 44.9314L70.6763 44.5157L70.1471 43.0954L69.181 43.4836L68.2662 43.7485L67.4042 43.7957L66.6096 43.5643L65.9235 43.0802L65.3811 42.3541L64.9471 41.4863L64.6437 40.5349L64.4311 39.5012L64.2611 38.4599L64.1745 37.4217L64.1423 36.3302L62.6763 36.3774Z" fill="#1C0803"/>
<path fill-rule="evenodd" clip-rule="evenodd" d="M69.3265 34.3781L68.6257 34.7264L68.9276 35.3307L69.6283 34.9825L69.2795 34.2829L68.6742 34.5843L69.0214 35.2839L69.7222 34.9387L69.4234 34.3328L68.7227 34.678L69.0715 35.3776L69.6753 35.0778L69.3265 34.3781L68.6257 34.7264L69.3265 34.3781L68.9776 33.6784L68.3739 33.9799L67.6763 34.3266L68.3191 35.629L68.6664 36.3302L69.9755 35.6821L70.6763 35.3354L70.0272 34.0298L69.6784 33.3302L68.9776 33.6784L69.3265 34.3781Z" fill="#1C0803"/>
<path fill-rule="evenodd" clip-rule="evenodd" d="M123.987 13.2318L123.794 12.1526L123.837 11.0812L124.018 10.03L124.306 8.99572L124.617 7.94755L125.195 7.03102L125.799 6.13613L126.557 5.36664L127.144 4.44543L127.861 3.63417L128.78 3.05045L129.434 2.16175L130.356 1.59666L131.142 0.865907L132.025 0.3302L133.048 0.584115L134.023 1.07957L134.793 1.87226L135.501 2.70521L136.212 3.54898L136.807 4.4888L137.059 5.59112L137.483 6.60522L137.899 7.63949L137.941 8.76812L138.277 9.83642L138.362 10.9496L138.443 12.0597L138.66 13.1698L138.676 14.2954L138.645 15.4132L138.368 16.5001L138.17 17.5885L137.832 18.6429L137.397 19.657L136.902 20.6448L136.191 21.487L135.568 22.3865L134.872 23.2334L134.056 23.9596L133.293 24.7492L132.474 25.4846L131.502 25.9909L130.641 26.6752L129.606 27.0499L128.729 27.7311L127.715 28.1367L126.694 28.516L125.697 28.9527L124.676 29.3273L123.663 29.7299L122.586 29.9188L121.571 30.3291L120.473 30.4297L119.436 30.7966L118.355 30.9235L117.312 31.2766L116.211 31.2317L115.146 31.4778L114.063 31.532L112.985 31.6373L111.899 31.6667L110.816 31.5971L109.728 31.3432L108.616 31.4267L107.562 31.7952L106.51 32.1405L105.501 32.6158L104.63 33.3202L103.694 33.9256L102.96 34.7911L102.092 35.5048L101.46 36.4354L100.77 37.3302L100.107 36.3424L100.048 35.1843L100.084 34.0479L100.022 32.8775L100.348 31.7612L100.767 30.6821L101.137 29.5952L101.388 28.4588L101.968 27.4369L101.012 26.7743L100.134 26.0513L99.5187 25.0867L99.0135 24.0788L98.5385 23.0631L98.059 22.0258L97.7428 20.9265L97.6763 19.6849L98.5461 20.5704L99.313 21.4158L100.207 22.1171L101.118 22.7952L102.16 23.2551L103.139 23.8156L104.17 24.2707L105.24 24.6268L106.333 24.8854L107.45 25.0217L108.581 25.1486L109.645 24.8544L110.645 24.4318L111.666 24.0571L112.616 23.5214L113.547 22.9516L114.385 22.2395L115.329 21.679L116.158 20.9544L116.942 20.1788L117.877 19.5765L118.697 18.8349L119.459 18.0298L120.211 17.2231L120.99 16.4521L121.752 15.6578L122.463 14.814L123.209 14.0121L123.987 13.2318Z" fill="#6E8A8A"/>
<path fill-rule="evenodd" clip-rule="evenodd" d="M128.676 16.349L128.688 17.4191L128.69 17.4944L128.915 18.6257L128.93 18.701L129.365 19.768L129.405 19.8652L130.115 20.7941L130.181 20.882L131.114 21.5661L131.18 21.6147L132.211 22.0634L132.291 22.098L133.394 22.2894L133.447 22.2988L134.541 22.3286L134.588 22.3302L135.676 22.2235L135.534 20.6608L134.537 20.7596L133.59 20.7329L132.712 20.5807L131.917 20.2355L131.228 19.7287L130.714 19.0572L130.377 18.2335L130.198 17.325L130.186 16.3302L128.676 16.349Z" fill="#1C0803"/>
<path fill-rule="evenodd" clip-rule="evenodd" d="M135.628 9.8302L135.103 9.30549L134.652 9.7576L135.176 10.2823L135.7 9.7576L135.25 9.30698L134.725 9.8302L135.25 10.3534L135.7 9.90285L135.176 9.37813L134.652 9.90285L135.104 10.3549L135.628 9.8302L135.103 9.30549L135.628 9.8302L136.151 9.30549L135.699 8.85491L135.176 8.3302L134.2 9.30698L133.676 9.8302L134.651 10.8055L135.176 11.3302L136.153 10.3549L136.676 9.8302L136.151 9.30549L135.628 9.8302Z" fill="#1C0803"/>
<path fill-rule="evenodd" clip-rule="evenodd" d="M7.53639 21.9607L8.29169 22.7386L8.96781 23.6141L9.73375 24.4477L10.2819 25.4363L10.6794 26.476L10.888 27.5637L11.1317 28.6391L11.3479 29.7191L11.5504 30.8007L11.8123 31.8698L12.1474 32.9204L12.4215 33.988L12.7656 35.037L13.2727 36.0194L13.5849 37.0901L14.1026 38.0663L14.6645 39.0162L15.3254 39.8963L15.9391 40.812L16.7842 41.5248L17.5212 42.3274L18.3207 43.065L19.1095 43.8273L19.9699 44.5045L20.9231 45.0406L21.8901 45.5457L22.8327 46.1036L23.8423 46.5142L24.8976 46.7931L25.8889 47.2626L26.9822 47.3897L28.0071 47.7786L29.0746 48.0156L30.1572 48.1675L31.2734 48.2837L32.3972 48.3302L33.5196 48.1877L34.6296 47.9398L35.4809 47.1789L36.154 46.2957L36.5605 45.2358L36.6763 44.0923L36.4418 42.972L36.2956 41.8425L35.9423 40.7578L35.4504 39.732L35.1185 38.6319L34.4865 37.6789L34.0312 36.6283L33.3018 35.7451L32.6607 34.8108L32.1292 33.785L31.246 33.0459L30.5044 32.1984L29.7309 31.374L28.773 30.844L27.9644 30.0802L26.9183 29.7206L25.9635 29.2047L25.0742 28.5508L24.0875 28.0937L23.0261 27.8039L22.1139 27.1717L21.0754 26.8231L20.0597 26.4249L19.1278 25.8469L18.2111 25.2581L17.2426 24.7591L16.3441 24.1425L15.5538 23.3925L14.6919 22.72L13.9458 21.9112L13.5179 20.8869L13.0945 19.8643L12.6819 18.8323L12.3803 17.7508L12.3681 16.6289L12.3986 15.5117L12.5174 14.3976L12.8707 13.3393L13.3153 12.3244L13.6443 11.249L14.331 10.3302L13.297 10.7067L12.4519 11.3916L11.4423 11.7805L10.6916 12.5723L9.81143 13.189L9.10485 14.0041L8.48813 14.8842L7.89271 15.7876L7.57294 16.8257L6.44761 16.9109L5.31617 16.976L4.20455 17.2472L3.14165 17.681L2.07571 18.0979L1.19096 18.837L0.67627 19.9356L1.76505 19.8906L2.77467 20.137L3.79035 20.3322L4.85478 20.3663L5.81564 20.8126L6.80851 21.1705L7.53639 21.9607Z" fill="#6E8A8A"/>
<path fill-rule="evenodd" clip-rule="evenodd" d="M21.8266 35.3302L21.2283 36.0646L21.2089 36.089L20.6505 36.9194L20.6166 36.9682L20.167 37.9312L20.144 37.9799L19.8165 39.013L19.7863 39.1074L19.6823 40.2548L19.6763 40.331L19.7536 41.4554L19.7609 41.553L20.0679 42.6378L20.0933 42.7247L20.5949 43.6831L20.6179 43.7273L21.2041 44.5547L21.2174 44.5745L21.8326 45.3302L22.6763 44.2408L22.0912 43.5201L21.58 42.7978L21.1811 42.0375L20.9515 41.2254L20.891 40.3523L20.9684 39.4838L21.2331 38.6534L21.6066 37.8519L22.0925 37.1297L22.6702 36.4227L21.8266 35.3302Z" fill="#1C0803"/>
<path fill-rule="evenodd" clip-rule="evenodd" d="M28.454 38.1995L28.6048 37.2213L27.96 37.1223L27.8092 38.1005L28.7893 38.2529L28.8906 37.6114L27.9104 37.4589L27.7576 38.4371L28.3985 38.5361L28.5493 37.5579L27.5691 37.4114L27.4719 38.053L28.454 38.1995L28.6048 37.2213L28.454 38.1995L29.4362 38.346L29.5314 37.7045L29.6763 36.7302L28.0612 36.4807L27.081 36.3302L26.829 37.948L26.6763 38.9282L28.3032 39.1777L29.2893 39.3302L29.4362 38.346L28.454 38.1995Z" fill="#1C0803"/>
</svg>
